<?xml version="1.0" encoding="UTF-8"?>
<svg xmlns="http://www.w3.org/2000/svg" xmlns:xlink="http://www.w3.org/1999/xlink" width="366.666667" height="254.666667" viewBox="0 0 366.666667 254.666667" version="1.1">
<g id="surface1">
<path style="fill:none;stroke-width:1;stroke-linecap:round;stroke-linejoin:round;stroke:rgb(0%,0%,0%);stroke-opacity:1;stroke-miterlimit:10;" d="M 40.999023 173.609375 L 40.999023 43.399414 " transform="matrix(1.333333,0,0,1.333333,-9.333333,-14.666667)"/>
<path style="fill:none;stroke-width:1;stroke-linecap:butt;stroke-linejoin:miter;stroke:rgb(0%,0%,0%);stroke-opacity:1;stroke-miterlimit:10;" d="M 40.999023 39.397461 L 40.999023 43.399414 M 39.499023 43.399414 L 40.999023 39.397461 L 42.499023 43.399414 " transform="matrix(1.333333,0,0,1.333333,-9.333333,-14.666667)"/>
<path style="fill:none;stroke-width:1;stroke-linecap:round;stroke-linejoin:round;stroke:rgb(0%,0%,0%);stroke-opacity:1;stroke-miterlimit:10;" d="M 40.999023 174.110352 L 275.101562 173.624023 " transform="matrix(1.333333,0,0,1.333333,-9.333333,-14.666667)"/>
<path style="fill:none;stroke-width:1;stroke-linecap:butt;stroke-linejoin:miter;stroke:rgb(0%,0%,0%);stroke-opacity:1;stroke-miterlimit:10;" d="M 279.100586 173.618164 L 275.101562 173.624023 M 275.098633 172.124023 L 279.100586 173.618164 L 275.101562 175.124023 " transform="matrix(1.333333,0,0,1.333333,-9.333333,-14.666667)"/>
<path style=" stroke:none;fill-rule:nonzero;fill:rgb(0%,0%,0%);fill-opacity:1;" d="M 18.207031 49.542969 L 12.375 49.542969 L 12.375 54.125 L 13.230469 54.125 L 13.230469 50.3125 L 17.375 50.3125 L 17.375 54.105469 L 18.207031 54.105469 Z M 12.792969 45.980469 L 12.792969 48.6875 L 17.855469 48.6875 L 17.855469 45.980469 Z M 17.019531 47.957031 L 13.625 47.957031 L 13.625 46.730469 L 17.019531 46.730469 Z M 14.855469 50.980469 L 14.855469 52.25 C 14.8125 53.167969 14.582031 53.894531 14.125 54.480469 C 13.625 55.019531 12.769531 55.457031 11.542969 55.792969 L 12 56.519531 C 13.292969 56.167969 14.207031 55.667969 14.792969 55.019531 C 15.355469 54.332031 15.667969 53.394531 15.707031 52.25 L 15.707031 50.980469 Z M 9.375 56.394531 C 10.082031 56.394531 10.4375 56.042969 10.4375 55.332031 L 10.4375 51.8125 C 10.894531 51.605469 11.355469 51.375 11.8125 51.144531 L 11.8125 50.269531 C 11.375 50.5 10.917969 50.730469 10.4375 50.957031 L 10.4375 48.5625 L 11.875 48.5625 L 11.875 47.730469 L 10.4375 47.730469 L 10.4375 45.542969 L 9.582031 45.542969 L 9.582031 47.730469 L 7.980469 47.730469 L 7.980469 48.5625 L 9.582031 48.5625 L 9.582031 51.292969 C 9 51.519531 8.394531 51.730469 7.769531 51.875 L 7.980469 52.75 C 8.519531 52.582031 9.0625 52.375 9.582031 52.1875 L 9.582031 55.125 C 9.582031 55.457031 9.417969 55.625 9.082031 55.625 C 8.75 55.625 8.417969 55.605469 8.0625 55.582031 L 8.25 56.394531 Z M 16.0625 54.105469 L 15.625 54.75 C 16.542969 55.1875 17.457031 55.792969 18.332031 56.542969 L 18.8125 55.8125 C 17.980469 55.144531 17.0625 54.582031 16.0625 54.105469 Z M 16.0625 54.105469 "/>
<path style=" stroke:none;fill-rule:nonzero;fill:rgb(0%,0%,0%);fill-opacity:1;" d="M 22.3125 45.792969 C 21.769531 47.394531 20.957031 48.667969 19.875 49.625 L 20.625 50.269531 C 21.125 49.792969 21.605469 49.1875 22.042969 48.480469 L 24.894531 48.480469 L 24.894531 49.269531 C 24.875 49.832031 24.832031 50.375 24.730469 50.875 L 20.082031 50.875 L 20.082031 51.707031 L 24.5625 51.707031 C 24.375 52.3125 24.125 52.875 23.8125 53.355469 C 23.0625 54.355469 21.75 55.144531 19.875 55.769531 L 20.332031 56.5 C 22.230469 55.894531 23.582031 55.042969 24.417969 53.957031 C 24.832031 53.375 25.167969 52.6875 25.394531 51.894531 C 26.042969 53.855469 27.667969 55.375 30.292969 56.5 L 30.769531 55.75 C 28.269531 54.792969 26.707031 53.4375 26.125 51.707031 L 30.582031 51.707031 L 30.582031 50.875 L 25.625 50.875 C 25.707031 50.375 25.769531 49.832031 25.792969 49.269531 L 25.792969 48.480469 L 29.8125 48.480469 L 29.8125 47.644531 L 25.792969 47.644531 L 25.792969 45.542969 L 24.894531 45.542969 L 24.894531 47.644531 L 22.480469 47.644531 C 22.707031 47.167969 22.917969 46.644531 23.105469 46.082031 Z M 22.3125 45.792969 "/>
<path style=" stroke:none;fill-rule:nonzero;fill:rgb(0%,0%,0%);fill-opacity:1;" d="M 302.855469 234.003906 L 302.855469 234.773438 L 304.605469 234.773438 L 304.605469 235.667969 L 305.417969 235.667969 L 305.417969 234.773438 L 307.332031 234.773438 L 307.332031 235.667969 L 308.167969 235.667969 L 308.167969 234.773438 L 310.019531 234.773438 L 310.019531 234.003906 L 308.167969 234.003906 L 308.167969 233.042969 L 307.332031 233.042969 L 307.332031 234.003906 L 305.417969 234.003906 L 305.417969 233.042969 L 304.605469 233.042969 L 304.605469 234.003906 Z M 306.230469 241.542969 C 306.917969 242.542969 308.042969 243.378906 309.605469 244.042969 L 310.167969 243.355469 C 308.75 242.855469 307.707031 242.210938 307 241.378906 L 310.042969 241.378906 L 310.042969 240.585938 L 306.582031 240.585938 C 306.667969 240.316406 306.730469 240.023438 306.769531 239.691406 L 309.230469 239.691406 L 309.230469 236.042969 L 303.5 236.042969 L 303.5 239.691406 L 306.019531 239.691406 C 305.957031 240.003906 305.875 240.316406 305.792969 240.585938 L 302.625 240.585938 L 302.625 241.378906 L 305.417969 241.378906 C 305.332031 241.566406 305.207031 241.710938 305.082031 241.855469 C 304.5625 242.480469 303.707031 242.941406 302.5 243.273438 L 302.8125 243.980469 C 304.207031 243.585938 305.167969 243.066406 305.707031 242.355469 C 305.894531 242.128906 306.082031 241.835938 306.230469 241.542969 Z M 301.6875 237.878906 C 302 238.355469 302.394531 239.003906 302.832031 239.792969 L 303.292969 239.105469 C 302.730469 238.292969 302.207031 237.585938 301.6875 236.960938 L 301.6875 236.167969 L 302.957031 236.167969 L 302.957031 235.378906 L 301.6875 235.378906 L 301.6875 233.066406 L 300.875 233.066406 L 300.875 235.378906 L 299.480469 235.378906 L 299.480469 236.167969 L 300.875 236.167969 L 300.875 236.230469 C 300.519531 237.710938 299.917969 239.003906 299.082031 240.148438 L 299.457031 241.085938 C 300.042969 240.167969 300.5 239.128906 300.875 238.003906 L 300.875 243.980469 L 301.6875 243.980469 Z M 308.457031 239.003906 L 304.269531 239.003906 L 304.269531 238.191406 L 308.457031 238.191406 Z M 304.269531 237.542969 L 304.269531 236.753906 L 308.457031 236.753906 L 308.457031 237.542969 Z M 304.269531 237.542969 "/>
<path style=" stroke:none;fill-rule:nonzero;fill:rgb(0%,0%,0%);fill-opacity:1;" d="M 311.792969 233.542969 L 311.792969 234.316406 L 313 234.316406 L 313 236.128906 L 311.480469 236.128906 L 311.480469 236.917969 L 312.957031 236.917969 C 312.832031 237.898438 312.4375 238.628906 311.769531 239.128906 L 312.417969 239.691406 C 313.207031 239.066406 313.667969 238.148438 313.792969 236.917969 L 315.375 236.917969 L 315.375 239.542969 L 316.207031 239.542969 L 316.207031 236.917969 L 317.6875 236.917969 L 317.6875 236.128906 L 316.207031 236.128906 L 316.207031 234.316406 L 317.417969 234.316406 L 317.417969 233.542969 Z M 313.832031 234.316406 L 315.375 234.316406 L 315.375 236.128906 L 313.832031 236.128906 Z M 318.394531 233.835938 L 318.394531 237.960938 L 319.230469 237.960938 L 319.230469 233.835938 Z M 312.0625 240.730469 L 312.0625 241.523438 L 316.292969 241.523438 L 316.292969 242.917969 L 311.394531 242.917969 L 311.394531 243.710938 L 321.9375 243.710938 L 321.9375 242.917969 L 317.144531 242.917969 L 317.144531 241.523438 L 321.269531 241.523438 L 321.269531 240.730469 L 317.144531 240.730469 L 317.144531 239.691406 L 316.292969 239.691406 L 316.292969 240.730469 Z M 320.4375 239.667969 C 321.0625 239.667969 321.394531 239.292969 321.394531 238.566406 L 321.394531 233.167969 L 320.5625 233.167969 L 320.5625 238.355469 C 320.5625 238.710938 320.417969 238.898438 320.144531 238.898438 C 319.667969 238.898438 319.167969 238.878906 318.644531 238.835938 L 318.832031 239.667969 Z M 320.4375 239.667969 "/>
<path style=" stroke:none;fill-rule:nonzero;fill:rgb(0%,0%,0%);fill-opacity:1;" d="M 326 234.648438 L 333.417969 234.648438 L 333.417969 233.898438 L 326.394531 233.898438 C 326.519531 233.628906 326.625 233.335938 326.730469 233.042969 L 325.875 232.898438 C 325.417969 234.253906 324.582031 235.378906 323.355469 236.316406 L 323.875 236.980469 C 324.394531 236.585938 324.855469 236.148438 325.25 235.691406 L 325.25 239.273438 L 326.792969 239.273438 C 326.144531 240.148438 325.144531 240.855469 323.75 241.398438 L 324.207031 242.128906 C 324.832031 241.835938 325.394531 241.523438 325.875 241.191406 C 326.519531 241.753906 327.269531 242.230469 328.082031 242.628906 C 326.832031 242.980469 325.355469 243.191406 323.625 243.273438 L 323.957031 244.023438 C 325.980469 243.898438 327.6875 243.585938 329.105469 243.066406 C 330.457031 243.585938 332.042969 243.898438 333.792969 243.980469 L 334 243.191406 C 332.582031 243.148438 331.292969 242.941406 330.125 242.605469 C 331.125 242.105469 331.917969 241.480469 332.5 240.710938 L 332.5 240.085938 L 327.125 240.085938 C 327.355469 239.835938 327.542969 239.566406 327.730469 239.273438 L 332.480469 239.273438 L 332.480469 235.480469 L 325.417969 235.480469 C 325.625 235.210938 325.8125 234.941406 326 234.648438 Z M 329.105469 242.273438 C 328.144531 241.898438 327.269531 241.398438 326.5 240.792969 L 331.4375 240.792969 C 330.855469 241.378906 330.0625 241.878906 329.105469 242.273438 Z M 331.644531 238.585938 L 326.105469 238.585938 L 326.105469 237.691406 L 331.644531 237.691406 Z M 326.105469 237.042969 L 326.105469 236.167969 L 331.644531 236.167969 L 331.644531 237.042969 Z M 326.105469 237.042969 "/>
<path style=" stroke:none;fill-rule:nonzero;fill:rgb(0%,0%,0%);fill-opacity:1;" d="M 335.542969 239.230469 L 335.542969 240.085938 L 340.292969 240.085938 L 340.292969 242.691406 C 340.292969 243.003906 340.125 243.148438 339.8125 243.148438 C 339.375 243.148438 338.917969 243.128906 338.4375 243.085938 L 338.625 243.941406 L 340.125 243.941406 C 340.8125 243.941406 341.167969 243.585938 341.167969 242.898438 L 341.167969 240.085938 L 345.792969 240.085938 L 345.792969 239.230469 L 341.167969 239.230469 L 341.167969 238.003906 L 340.292969 238.003906 L 340.292969 239.230469 Z M 343.207031 240.542969 L 342.625 241.105469 C 343.730469 242.042969 344.582031 242.898438 345.207031 243.710938 L 345.875 243.066406 C 345.144531 242.210938 344.269531 241.378906 343.207031 240.542969 Z M 337.980469 240.480469 C 337.230469 241.417969 336.332031 242.253906 335.25 242.941406 L 335.8125 243.667969 C 336.917969 242.917969 337.832031 242.042969 338.582031 241.042969 Z M 339.355469 232.960938 C 339.292969 233.460938 339.207031 233.917969 339.105469 234.335938 L 335.9375 234.335938 L 335.9375 235.167969 L 338.832031 235.167969 C 338.667969 235.523438 338.5 235.855469 338.269531 236.148438 C 337.707031 236.898438 336.769531 237.460938 335.480469 237.855469 L 335.8125 238.648438 C 337.332031 238.191406 338.394531 237.542969 339 236.710938 C 339.3125 236.273438 339.582031 235.753906 339.769531 235.167969 L 342.394531 235.167969 L 342.394531 237.003906 C 342.394531 237.753906 342.769531 238.128906 343.542969 238.128906 L 344.625 238.128906 C 345.230469 238.128906 345.605469 237.855469 345.730469 237.316406 C 345.8125 237.128906 345.875 236.648438 345.9375 235.878906 L 345.105469 235.628906 C 345.105469 236.042969 345.082031 236.398438 345.042969 236.773438 C 344.980469 237.128906 344.832031 237.316406 344.605469 237.316406 L 343.667969 237.316406 C 343.394531 237.316406 343.25 237.167969 343.25 236.878906 L 343.25 234.335938 L 340 234.335938 C 340.105469 233.941406 340.167969 233.503906 340.207031 233.042969 Z M 339.355469 232.960938 "/>
<path style=" stroke:none;fill-rule:nonzero;fill:rgb(0%,0%,0%);fill-opacity:1;" d="M 349.792969 239.605469 L 349.792969 240.355469 L 350.519531 240.355469 C 351.082031 241.105469 351.8125 241.773438 352.707031 242.316406 C 351.625 242.773438 350.375 243.105469 348.980469 243.316406 L 349.355469 244.066406 C 350.9375 243.792969 352.332031 243.355469 353.5625 242.792969 C 354.6875 243.355469 356.105469 243.792969 357.75 244.066406 L 358.125 243.316406 C 356.707031 243.128906 355.457031 242.792969 354.375 242.355469 C 355.332031 241.773438 356.167969 241.066406 356.832031 240.253906 L 356.832031 239.605469 Z M 351.4375 240.355469 L 355.707031 240.355469 C 355.082031 240.960938 354.355469 241.503906 353.5 241.941406 C 352.6875 241.503906 352 240.980469 351.4375 240.355469 Z M 349.105469 236.917969 L 351.125 236.917969 L 351.125 238.792969 L 355.980469 238.792969 L 355.980469 236.917969 L 357.832031 236.917969 L 357.832031 236.128906 L 355.980469 236.128906 L 355.980469 235.148438 L 355.144531 235.148438 L 355.144531 236.128906 L 351.957031 236.128906 L 351.957031 235.167969 L 351.125 235.167969 L 351.125 236.128906 L 349.105469 236.128906 L 349.105469 234.773438 L 357.855469 234.773438 L 357.855469 233.941406 L 353.730469 233.941406 C 353.605469 233.585938 353.457031 233.253906 353.3125 232.960938 L 352.394531 233.085938 C 352.5625 233.355469 352.707031 233.628906 352.855469 233.941406 L 348.230469 233.941406 L 348.230469 237.855469 C 348.207031 240.230469 347.855469 242.066406 347.167969 243.398438 L 347.8125 243.980469 C 348.625 242.441406 349.0625 240.398438 349.105469 237.855469 Z M 351.957031 236.917969 L 355.144531 236.917969 L 355.144531 238.066406 L 351.957031 238.066406 Z M 351.957031 236.917969 "/>
<path style="fill:none;stroke-width:1;stroke-linecap:round;stroke-linejoin:round;stroke:rgb(0%,0%,0%);stroke-opacity:1;stroke-miterlimit:10;" d="M 57.499023 47 C 57.499023 47 69.176758 98.131836 128.995117 131.585938 C 188.816406 165.03418 268.65625 165.081055 268.65625 165.081055 " transform="matrix(1.333333,0,0,1.333333,-9.333333,-14.666667)"/>
<path style="fill:none;stroke-width:1;stroke-linecap:round;stroke-linejoin:round;stroke:rgb(0%,0%,0%);stroke-opacity:1;stroke-miterlimit:10;" d="M 57.499023 37.499023 C 57.499023 37.499023 67.47168 87.004883 127.292969 98.231445 C 187.114258 109.460938 268.65625 77.137695 268.65625 77.137695 " transform="matrix(1.333333,0,0,1.333333,-9.333333,-14.666667)"/>
<path style=" stroke:none;fill-rule:nonzero;fill:rgb(0%,0%,0%);fill-opacity:1;" d="M 298.832031 119.742188 C 297.039062 120.261719 294.789062 120.53125 292.058594 120.53125 L 292.332031 121.304688 C 295.207031 121.304688 297.519531 121.03125 299.246094 120.46875 Z M 295.746094 121.65625 L 294.808594 121.804688 C 295.019531 122.28125 295.207031 122.804688 295.394531 123.386719 L 292.519531 123.386719 L 292.519531 124.21875 L 297.933594 124.21875 C 296.933594 125.824219 295.582031 127.136719 293.832031 128.136719 C 293.769531 128.09375 293.746094 128.03125 293.707031 128.011719 C 293.601562 127.929688 293.476562 127.867188 293.332031 127.867188 C 292.769531 127.867188 292.207031 128.574219 291.621094 129.992188 L 292.289062 130.554688 C 292.726562 129.386719 293.082031 128.824219 293.308594 128.824219 C 293.414062 128.824219 293.519531 128.886719 293.621094 129.011719 C 293.832031 129.367188 294.082031 129.65625 294.351562 129.84375 C 294.707031 130.09375 295.183594 130.261719 295.832031 130.304688 C 296.164062 130.324219 296.558594 130.324219 297.039062 130.324219 L 299.539062 130.324219 L 299.726562 129.46875 C 298.726562 129.511719 297.789062 129.53125 296.914062 129.53125 C 296.457031 129.53125 296.039062 129.511719 295.707031 129.511719 C 295.183594 129.492188 294.726562 129.261719 294.308594 128.78125 C 296.289062 127.65625 297.808594 126.117188 298.914062 124.15625 L 298.914062 123.386719 L 296.269531 123.386719 C 296.101562 122.742188 295.914062 122.179688 295.746094 121.65625 Z M 289.746094 119.78125 L 289.121094 120.386719 C 289.957031 121.011719 290.621094 121.617188 291.101562 122.199219 L 291.707031 121.574219 C 291.164062 120.96875 290.519531 120.386719 289.746094 119.78125 Z M 289.433594 122.617188 L 288.832031 123.199219 C 289.601562 123.84375 290.207031 124.46875 290.621094 125.03125 L 291.246094 124.40625 C 290.769531 123.824219 290.164062 123.21875 289.433594 122.617188 Z M 290.851562 125.949219 C 290.332031 127.367188 289.726562 128.761719 288.996094 130.117188 L 289.851562 130.492188 C 290.519531 129.15625 291.101562 127.761719 291.644531 126.261719 Z M 290.851562 125.949219 "/>
<path style=" stroke:none;fill-rule:nonzero;fill:rgb(0%,0%,0%);fill-opacity:1;" d="M 304.371094 119.511719 C 303.601562 121.40625 302.371094 123.09375 300.664062 124.554688 L 300.933594 125.449219 C 301.582031 124.929688 302.164062 124.367188 302.707031 123.78125 L 302.707031 130.636719 L 303.558594 130.636719 L 303.558594 122.71875 C 304.207031 121.84375 304.746094 120.90625 305.164062 119.886719 Z M 309.894531 130.40625 C 310.476562 130.40625 310.871094 130.261719 311.082031 129.992188 C 311.289062 129.699219 311.433594 128.867188 311.519531 127.46875 L 310.726562 127.21875 C 310.664062 128.40625 310.582031 129.09375 310.457031 129.28125 C 310.308594 129.46875 310.058594 129.59375 309.746094 129.59375 L 307.808594 129.59375 C 307.414062 129.59375 307.207031 129.386719 307.207031 129.03125 L 307.207031 124.96875 C 308.707031 124.03125 310.019531 122.96875 311.121094 121.761719 L 310.519531 121.074219 C 309.582031 122.15625 308.476562 123.117188 307.207031 123.949219 L 307.207031 119.65625 L 306.351562 119.65625 L 306.351562 124.46875 C 305.746094 124.84375 305.082031 125.15625 304.414062 125.46875 L 304.808594 126.28125 C 305.332031 126.03125 305.851562 125.761719 306.351562 125.492188 L 306.351562 129.136719 C 306.351562 129.992188 306.769531 130.40625 307.601562 130.40625 Z M 309.894531 130.40625 "/>
<path style=" stroke:none;fill-rule:nonzero;fill:rgb(0%,0%,0%);fill-opacity:1;" d="M 323.082031 123.617188 L 317.246094 123.617188 L 317.246094 128.199219 L 318.101562 128.199219 L 318.101562 124.386719 L 322.246094 124.386719 L 322.246094 128.179688 L 323.082031 128.179688 Z M 317.664062 120.054688 L 317.664062 122.761719 L 322.726562 122.761719 L 322.726562 120.054688 Z M 321.894531 122.03125 L 318.496094 122.03125 L 318.496094 120.804688 L 321.894531 120.804688 Z M 319.726562 125.054688 L 319.726562 126.324219 C 319.683594 127.242188 319.457031 127.96875 318.996094 128.554688 C 318.496094 129.09375 317.644531 129.53125 316.414062 129.867188 L 316.871094 130.59375 C 318.164062 130.242188 319.082031 129.742188 319.664062 129.09375 C 320.226562 128.40625 320.539062 127.46875 320.582031 126.324219 L 320.582031 125.054688 Z M 314.246094 130.46875 C 314.957031 130.46875 315.308594 130.117188 315.308594 129.40625 L 315.308594 125.886719 C 315.769531 125.679688 316.226562 125.449219 316.683594 125.21875 L 316.683594 124.34375 C 316.246094 124.574219 315.789062 124.804688 315.308594 125.03125 L 315.308594 122.636719 L 316.746094 122.636719 L 316.746094 121.804688 L 315.308594 121.804688 L 315.308594 119.617188 L 314.457031 119.617188 L 314.457031 121.804688 L 312.851562 121.804688 L 312.851562 122.636719 L 314.457031 122.636719 L 314.457031 125.367188 C 313.871094 125.59375 313.269531 125.804688 312.644531 125.949219 L 312.851562 126.824219 C 313.394531 126.65625 313.933594 126.449219 314.457031 126.261719 L 314.457031 129.199219 C 314.457031 129.53125 314.289062 129.699219 313.957031 129.699219 C 313.621094 129.699219 313.289062 129.679688 312.933594 129.65625 L 313.121094 130.46875 Z M 320.933594 128.179688 L 320.496094 128.824219 C 321.414062 129.261719 322.332031 129.867188 323.207031 130.617188 L 323.683594 129.886719 C 322.851562 129.21875 321.933594 128.65625 320.933594 128.179688 Z M 320.933594 128.179688 "/>
<path style=" stroke:none;fill-rule:nonzero;fill:rgb(0%,0%,0%);fill-opacity:1;" d="M 327.183594 119.867188 C 326.644531 121.46875 325.832031 122.742188 324.746094 123.699219 L 325.496094 124.34375 C 325.996094 123.867188 326.476562 123.261719 326.914062 122.554688 L 329.769531 122.554688 L 329.769531 123.34375 C 329.746094 123.90625 329.707031 124.449219 329.601562 124.949219 L 324.957031 124.949219 L 324.957031 125.78125 L 329.433594 125.78125 C 329.246094 126.386719 328.996094 126.949219 328.683594 127.429688 C 327.933594 128.429688 326.621094 129.21875 324.746094 129.84375 L 325.207031 130.574219 C 327.101562 129.96875 328.457031 129.117188 329.289062 128.03125 C 329.707031 127.449219 330.039062 126.761719 330.269531 125.96875 C 330.914062 127.929688 332.539062 129.449219 335.164062 130.574219 L 335.644531 129.824219 C 333.144531 128.867188 331.582031 127.511719 330.996094 125.78125 L 335.457031 125.78125 L 335.457031 124.949219 L 330.496094 124.949219 C 330.582031 124.449219 330.644531 123.90625 330.664062 123.34375 L 330.664062 122.554688 L 334.683594 122.554688 L 334.683594 121.71875 L 330.664062 121.71875 L 330.664062 119.617188 L 329.769531 119.617188 L 329.769531 121.71875 L 327.351562 121.71875 C 327.582031 121.242188 327.789062 120.71875 327.976562 120.15625 Z M 327.183594 119.867188 "/>
<path style=" stroke:none;fill-rule:nonzero;fill:rgb(0%,0%,0%);fill-opacity:1;" d="M 295.851562 178.355469 L 295.851562 187.75 L 296.683594 187.75 L 296.683594 178.355469 Z M 298.371094 177.769531 L 298.371094 188.5625 L 299.226562 188.5625 L 299.226562 177.769531 Z M 293.476562 177.8125 L 293.476562 183.082031 C 293.457031 185.355469 292.976562 187 292.019531 188.019531 L 292.664062 188.605469 C 293.726562 187.4375 294.269531 185.605469 294.308594 183.082031 L 294.308594 177.8125 Z M 290.144531 177.644531 L 289.558594 178.230469 C 290.414062 178.875 291.101562 179.5 291.621094 180.105469 L 292.207031 179.5 C 291.644531 178.875 290.957031 178.269531 290.144531 177.644531 Z M 288.746094 181.207031 L 288.746094 182.019531 L 290.519531 182.019531 L 290.519531 186.6875 C 290.519531 186.894531 290.414062 187.082031 290.246094 187.230469 L 290.582031 188 C 291.308594 187.480469 291.976562 186.875 292.601562 186.207031 L 292.371094 185.3125 C 292.019531 185.6875 291.664062 186.042969 291.332031 186.355469 L 291.332031 181.207031 Z M 288.746094 181.207031 "/>
<path style=" stroke:none;fill-rule:nonzero;fill:rgb(0%,0%,0%);fill-opacity:1;" d="M 304.539062 186.105469 C 303.457031 186.5625 302.164062 186.917969 300.707031 187.1875 L 300.808594 188.0625 C 302.207031 187.769531 303.457031 187.394531 304.539062 186.957031 Z M 302.726562 177.5625 C 302.289062 178.980469 301.789062 180.207031 301.183594 181.3125 C 301.082031 181.457031 300.957031 181.582031 300.808594 181.644531 L 301.039062 182.4375 C 301.664062 182.332031 302.269531 182.207031 302.871094 182.082031 C 302.289062 183.207031 301.769531 184 301.351562 184.480469 C 301.246094 184.582031 301.101562 184.667969 300.957031 184.75 L 301.183594 185.542969 C 302.289062 185.375 303.433594 185.082031 304.644531 184.625 L 304.644531 183.832031 C 303.832031 184.144531 303.019531 184.375 302.226562 184.542969 C 302.871094 183.6875 303.707031 182.269531 304.726562 180.269531 L 303.933594 179.957031 C 303.707031 180.4375 303.496094 180.875 303.269531 181.3125 C 302.789062 181.394531 302.308594 181.480469 301.832031 181.5625 C 302.414062 180.644531 302.976562 179.417969 303.558594 177.875 Z M 305.996094 184.769531 C 305.644531 185.769531 305.144531 186.730469 304.476562 187.667969 L 305.226562 188.082031 C 305.789062 187.269531 306.308594 186.269531 306.746094 185.082031 Z M 310.496094 184.769531 L 309.726562 185.019531 C 310.207031 185.894531 310.644531 186.917969 311.039062 188.082031 L 311.769531 187.75 C 311.414062 186.6875 310.976562 185.707031 310.496094 184.769531 Z M 307.808594 188.417969 C 308.496094 188.417969 308.851562 188.105469 308.851562 187.457031 L 308.851562 184.082031 L 311.394531 184.082031 L 311.394531 183.3125 L 308.851562 183.3125 L 308.851562 180.980469 L 307.246094 180.980469 C 307.371094 180.582031 307.519531 180.125 307.664062 179.6875 L 311.394531 179.6875 L 311.394531 178.875 L 307.914062 178.875 C 308.019531 178.480469 308.121094 178.082031 308.226562 177.667969 L 307.394531 177.519531 C 307.269531 177.980469 307.164062 178.4375 307.039062 178.875 L 304.371094 178.875 L 304.371094 179.6875 L 306.808594 179.6875 C 306.664062 180.125 306.519531 180.5625 306.371094 180.980469 L 304.808594 180.980469 L 304.808594 181.769531 L 306.058594 181.769531 C 305.808594 182.332031 305.539062 182.875 305.289062 183.332031 L 305.476562 184.082031 L 308.019531 184.082031 L 308.019531 187.207031 C 308.019531 187.519531 307.851562 187.667969 307.558594 187.667969 L 306.414062 187.625 L 306.621094 188.417969 Z M 306.933594 181.769531 L 308.019531 181.769531 L 308.019531 183.3125 L 306.246094 183.3125 C 306.476562 182.832031 306.707031 182.3125 306.933594 181.769531 Z M 306.933594 181.769531 "/>
<path style=" stroke:none;fill-rule:nonzero;fill:rgb(0%,0%,0%);fill-opacity:1;" d="M 323.082031 181.542969 L 317.246094 181.542969 L 317.246094 186.125 L 318.101562 186.125 L 318.101562 182.3125 L 322.246094 182.3125 L 322.246094 186.105469 L 323.082031 186.105469 Z M 317.664062 177.980469 L 317.664062 180.6875 L 322.726562 180.6875 L 322.726562 177.980469 Z M 321.894531 179.957031 L 318.496094 179.957031 L 318.496094 178.730469 L 321.894531 178.730469 Z M 319.726562 182.980469 L 319.726562 184.25 C 319.683594 185.167969 319.457031 185.894531 318.996094 186.480469 C 318.496094 187.019531 317.644531 187.457031 316.414062 187.792969 L 316.871094 188.519531 C 318.164062 188.167969 319.082031 187.667969 319.664062 187.019531 C 320.226562 186.332031 320.539062 185.394531 320.582031 184.25 L 320.582031 182.980469 Z M 314.246094 188.394531 C 314.957031 188.394531 315.308594 188.042969 315.308594 187.332031 L 315.308594 183.8125 C 315.769531 183.605469 316.226562 183.375 316.683594 183.144531 L 316.683594 182.269531 C 316.246094 182.5 315.789062 182.730469 315.308594 182.957031 L 315.308594 180.5625 L 316.746094 180.5625 L 316.746094 179.730469 L 315.308594 179.730469 L 315.308594 177.542969 L 314.457031 177.542969 L 314.457031 179.730469 L 312.851562 179.730469 L 312.851562 180.5625 L 314.457031 180.5625 L 314.457031 183.292969 C 313.871094 183.519531 313.269531 183.730469 312.644531 183.875 L 312.851562 184.75 C 313.394531 184.582031 313.933594 184.375 314.457031 184.1875 L 314.457031 187.125 C 314.457031 187.457031 314.289062 187.625 313.957031 187.625 C 313.621094 187.625 313.289062 187.605469 312.933594 187.582031 L 313.121094 188.394531 Z M 320.933594 186.105469 L 320.496094 186.75 C 321.414062 187.1875 322.332031 187.792969 323.207031 188.542969 L 323.683594 187.8125 C 322.851562 187.144531 321.933594 186.582031 320.933594 186.105469 Z M 320.933594 186.105469 "/>
<path style=" stroke:none;fill-rule:nonzero;fill:rgb(0%,0%,0%);fill-opacity:1;" d="M 327.183594 177.792969 C 326.644531 179.394531 325.832031 180.667969 324.746094 181.625 L 325.496094 182.269531 C 325.996094 181.792969 326.476562 181.1875 326.914062 180.480469 L 329.769531 180.480469 L 329.769531 181.269531 C 329.746094 181.832031 329.707031 182.375 329.601562 182.875 L 324.957031 182.875 L 324.957031 183.707031 L 329.433594 183.707031 C 329.246094 184.3125 328.996094 184.875 328.683594 185.355469 C 327.933594 186.355469 326.621094 187.144531 324.746094 187.769531 L 325.207031 188.5 C 327.101562 187.894531 328.457031 187.042969 329.289062 185.957031 C 329.707031 185.375 330.039062 184.6875 330.269531 183.894531 C 330.914062 185.855469 332.539062 187.375 335.164062 188.5 L 335.644531 187.75 C 333.144531 186.792969 331.582031 185.4375 330.996094 183.707031 L 335.457031 183.707031 L 335.457031 182.875 L 330.496094 182.875 C 330.582031 182.375 330.644531 181.832031 330.664062 181.269531 L 330.664062 180.480469 L 334.683594 180.480469 L 334.683594 179.644531 L 330.664062 179.644531 L 330.664062 177.542969 L 329.769531 177.542969 L 329.769531 179.644531 L 327.351562 179.644531 C 327.582031 179.167969 327.789062 178.644531 327.976562 178.082031 Z M 327.183594 177.792969 "/>
<path style=" stroke:none;fill-rule:nonzero;fill:rgb(0%,0%,0%);fill-opacity:1;" d="M 86.519531 18.769531 L 92.1875 18.769531 C 92 19.792969 91.605469 20.707031 91 21.542969 L 91.625 22.144531 C 92.394531 21.230469 92.875 20.019531 93.105469 18.5625 L 93.105469 17.957031 L 86.832031 17.957031 C 87.019531 17.417969 87.1875 16.8125 87.3125 16.1875 L 86.4375 16.082031 C 86.042969 18.292969 85.144531 20 83.730469 21.207031 L 84.269531 21.894531 C 85.207031 21.144531 85.957031 20.125 86.519531 18.769531 Z M 88.230469 19.5625 C 88.207031 21.144531 87.957031 22.4375 87.457031 23.457031 C 86.792969 24.667969 85.417969 25.667969 83.355469 26.480469 L 83.957031 27.1875 C 86.25 26.25 87.707031 25.0625 88.332031 23.625 C 88.457031 23.332031 88.582031 23.042969 88.6875 22.730469 C 89.5625 24.6875 91.207031 26.1875 93.582031 27.207031 L 94.0625 26.457031 C 91.375 25.355469 89.6875 23.667969 89 21.355469 C 89.0625 20.8125 89.105469 20.207031 89.105469 19.5625 Z M 88.230469 19.5625 "/>
<path style=" stroke:none;fill-rule:nonzero;fill:rgb(0%,0%,0%);fill-opacity:1;" d="M 99.269531 25.625 C 100.3125 25.25 101.269531 24.792969 102.1875 24.25 L 101.957031 23.5 C 101.417969 23.832031 100.832031 24.144531 100.25 24.394531 L 100.25 16.542969 L 99.4375 16.542969 L 99.4375 24.269531 C 99.4375 24.519531 99.292969 24.707031 99.019531 24.855469 Z M 96.625 27.042969 C 97.292969 27.042969 97.625 26.667969 97.625 25.9375 L 97.625 22.5625 C 98.0625 22.375 98.5 22.167969 98.917969 21.9375 L 98.917969 21.105469 C 98.480469 21.355469 98.042969 21.5625 97.625 21.75 L 97.625 19.230469 L 98.832031 19.230469 L 98.832031 18.394531 L 97.625 18.394531 L 97.625 16.1875 L 96.769531 16.1875 L 96.769531 18.394531 L 95.375 18.394531 L 95.375 19.230469 L 96.769531 19.230469 L 96.769531 22.082031 C 96.269531 22.269531 95.75 22.4375 95.230469 22.5625 L 95.417969 23.375 C 95.875 23.25 96.3125 23.082031 96.769531 22.917969 L 96.769531 25.707031 C 96.769531 26.082031 96.625 26.269531 96.332031 26.269531 C 96.042969 26.269531 95.730469 26.25 95.417969 26.207031 L 95.582031 27.042969 Z M 104.207031 16.269531 C 104.207031 18.625 104.042969 20.542969 103.6875 22.0625 C 103.230469 23.855469 102.269531 25.355469 100.832031 26.542969 L 101.375 27.207031 C 102.4375 26.332031 103.25 25.3125 103.8125 24.144531 C 104.519531 25.207031 105.082031 26.207031 105.519531 27.125 L 106.207031 26.644531 C 105.730469 25.6875 105.0625 24.582031 104.167969 23.3125 C 104.3125 22.9375 104.417969 22.519531 104.519531 22.105469 C 104.875 20.519531 105.0625 18.5625 105.0625 16.269531 Z M 101.792969 17.582031 L 101.082031 17.8125 C 101.605469 18.75 102.0625 19.8125 102.5 21.019531 L 103.207031 20.6875 C 102.8125 19.582031 102.332031 18.5625 101.792969 17.582031 Z M 101.792969 17.582031 "/>
<path style=" stroke:none;fill-rule:nonzero;fill:rgb(0%,0%,0%);fill-opacity:1;" d="M 112.355469 16.1875 C 110.9375 17.855469 109.167969 19.25 107.042969 20.375 L 107.5 21.207031 C 109.625 20 111.355469 18.605469 112.667969 16.957031 C 114.082031 18.6875 115.792969 20.105469 117.792969 21.167969 L 118.25 20.355469 C 116.269531 19.332031 114.5 17.957031 112.980469 16.1875 Z M 116.457031 22.355469 L 108.875 22.355469 L 108.875 27.1875 L 109.707031 27.1875 L 109.707031 26.457031 L 115.625 26.457031 L 115.625 27.1875 L 116.457031 27.1875 Z M 109.707031 25.644531 L 109.707031 23.167969 L 115.625 23.167969 L 115.625 25.644531 Z M 109.542969 20 L 109.542969 20.832031 L 115.792969 20.832031 L 115.792969 20 Z M 109.542969 20 "/>
<path style=" stroke:none;fill-rule:nonzero;fill:rgb(0%,0%,0%);fill-opacity:1;" d="M 235.480469 16.355469 L 234.875 16.9375 C 235.75 17.625 236.417969 18.292969 236.894531 18.894531 L 237.519531 18.25 C 236.980469 17.644531 236.292969 17 235.480469 16.355469 Z M 242.769531 26.980469 L 245.3125 26.980469 L 245.519531 26.105469 C 245.230469 26.125 244.8125 26.144531 244.269531 26.144531 C 243.730469 26.144531 243.1875 26.167969 242.667969 26.167969 C 241.6875 26.167969 240.855469 26.144531 240.1875 26.144531 C 239.457031 26.125 238.875 26.042969 238.480469 25.875 C 238.144531 25.707031 237.8125 25.457031 237.5 25.125 C 237.394531 25 237.292969 24.917969 237.1875 24.855469 L 237.1875 20.355469 L 234.644531 20.355469 L 234.644531 21.167969 L 236.355469 21.167969 L 236.355469 24.792969 C 235.855469 25.019531 235.292969 25.644531 234.644531 26.667969 L 235.292969 27.25 C 235.957031 26.125 236.457031 25.5625 236.75 25.5625 C 236.894531 25.5625 237.0625 25.667969 237.25 25.875 C 237.625 26.292969 238.0625 26.605469 238.5625 26.75 C 239.0625 26.875 239.730469 26.957031 240.542969 26.957031 C 241.355469 26.980469 242.082031 26.980469 242.769531 26.980469 Z M 242.417969 25.375 C 243.125 25.375 243.5 25.019531 243.5 24.3125 L 243.5 19.019531 L 245.269531 19.019531 L 245.269531 18.167969 L 243.5 18.167969 L 243.5 16.230469 L 242.625 16.230469 L 242.625 18.167969 L 238.082031 18.167969 L 238.082031 19.019531 L 242.625 19.019531 L 242.625 24.125 C 242.625 24.4375 242.457031 24.605469 242.105469 24.605469 C 241.605469 24.605469 241.0625 24.582031 240.519531 24.542969 L 240.707031 25.375 Z M 239.394531 20.082031 L 238.730469 20.519531 C 239.457031 21.394531 240.042969 22.1875 240.457031 22.894531 L 241.167969 22.417969 C 240.75 21.75 240.167969 20.980469 239.394531 20.082031 Z M 239.394531 20.082031 "/>
<path style=" stroke:none;fill-rule:nonzero;fill:rgb(0%,0%,0%);fill-opacity:1;" d="M 250.605469 25.625 C 251.644531 25.25 252.605469 24.792969 253.519531 24.25 L 253.292969 23.5 C 252.75 23.832031 252.167969 24.144531 251.582031 24.394531 L 251.582031 16.542969 L 250.769531 16.542969 L 250.769531 24.269531 C 250.769531 24.519531 250.625 24.707031 250.355469 24.855469 Z M 247.957031 27.042969 C 248.625 27.042969 248.957031 26.667969 248.957031 25.9375 L 248.957031 22.5625 C 249.394531 22.375 249.832031 22.167969 250.25 21.9375 L 250.25 21.105469 C 249.8125 21.355469 249.375 21.5625 248.957031 21.75 L 248.957031 19.230469 L 250.167969 19.230469 L 250.167969 18.394531 L 248.957031 18.394531 L 248.957031 16.1875 L 248.105469 16.1875 L 248.105469 18.394531 L 246.707031 18.394531 L 246.707031 19.230469 L 248.105469 19.230469 L 248.105469 22.082031 C 247.605469 22.269531 247.082031 22.4375 246.5625 22.5625 L 246.75 23.375 C 247.207031 23.25 247.644531 23.082031 248.105469 22.917969 L 248.105469 25.707031 C 248.105469 26.082031 247.957031 26.269531 247.667969 26.269531 C 247.375 26.269531 247.0625 26.25 246.75 26.207031 L 246.917969 27.042969 Z M 255.542969 16.269531 C 255.542969 18.625 255.375 20.542969 255.019531 22.0625 C 254.5625 23.855469 253.605469 25.355469 252.167969 26.542969 L 252.707031 27.207031 C 253.769531 26.332031 254.582031 25.3125 255.144531 24.144531 C 255.855469 25.207031 256.417969 26.207031 256.855469 27.125 L 257.542969 26.644531 C 257.0625 25.6875 256.394531 24.582031 255.5 23.3125 C 255.644531 22.9375 255.75 22.519531 255.855469 22.105469 C 256.207031 20.519531 256.394531 18.5625 256.394531 16.269531 Z M 253.125 17.582031 L 252.417969 17.8125 C 252.9375 18.75 253.394531 19.8125 253.832031 21.019531 L 254.542969 20.6875 C 254.144531 19.582031 253.667969 18.5625 253.125 17.582031 Z M 253.125 17.582031 "/>
<path style=" stroke:none;fill-rule:nonzero;fill:rgb(0%,0%,0%);fill-opacity:1;" d="M 263.6875 16.1875 C 262.269531 17.855469 260.5 19.25 258.375 20.375 L 258.832031 21.207031 C 260.957031 20 262.6875 18.605469 264 16.957031 C 265.417969 18.6875 267.125 20.105469 269.125 21.167969 L 269.582031 20.355469 C 267.605469 19.332031 265.832031 17.957031 264.3125 16.1875 Z M 267.792969 22.355469 L 260.207031 22.355469 L 260.207031 27.1875 L 261.042969 27.1875 L 261.042969 26.457031 L 266.957031 26.457031 L 266.957031 27.1875 L 267.792969 27.1875 Z M 261.042969 25.644531 L 261.042969 23.167969 L 266.957031 23.167969 L 266.957031 25.644531 Z M 260.875 20 L 260.875 20.832031 L 267.125 20.832031 L 267.125 20 Z M 260.875 20 "/>
<path style="fill:none;stroke-width:1;stroke-linecap:round;stroke-linejoin:round;stroke:rgb(0%,0%,0%);stroke-opacity:1;stroke-miterlimit:10;" d="M 98.749023 13.499023 L 72.147461 13.499023 " transform="matrix(1.333333,0,0,1.333333,-9.333333,-14.666667)"/>
<path style="fill-rule:nonzero;fill:rgb(0%,0%,0%);fill-opacity:1;stroke-width:1;stroke-linecap:butt;stroke-linejoin:miter;stroke:rgb(0%,0%,0%);stroke-opacity:1;stroke-miterlimit:10;" d="M 68.148437 13.499023 L 72.147461 14.999023 L 72.147461 11.999023 Z M 68.148437 13.499023 " transform="matrix(1.333333,0,0,1.333333,-9.333333,-14.666667)"/>
<path style="fill:none;stroke-width:1;stroke-linecap:round;stroke-linejoin:round;stroke:rgb(0%,0%,0%);stroke-opacity:1;stroke-miterlimit:10;" d="M 179.749023 13.499023 L 206.350586 13.499023 " transform="matrix(1.333333,0,0,1.333333,-9.333333,-14.666667)"/>
<path style="fill-rule:nonzero;fill:rgb(0%,0%,0%);fill-opacity:1;stroke-width:1;stroke-linecap:butt;stroke-linejoin:miter;stroke:rgb(0%,0%,0%);stroke-opacity:1;stroke-miterlimit:10;" d="M 210.352539 13.499023 L 206.350586 11.999023 L 206.350586 14.999023 Z M 210.352539 13.499023 " transform="matrix(1.333333,0,0,1.333333,-9.333333,-14.666667)"/>
<path style="fill:none;stroke-width:1;stroke-linecap:round;stroke-linejoin:round;stroke:rgb(0%,0%,0%);stroke-opacity:1;stroke-dasharray:1,5;stroke-miterlimit:10;" d="M 139.999023 174.608398 L 139.999023 38.500977 " transform="matrix(1.333333,0,0,1.333333,-9.333333,-14.666667)"/>
<path style=" stroke:none;fill-rule:nonzero;fill:rgb(0%,0%,0%);fill-opacity:1;" d="M 166.730469 20.875 L 166.730469 21.5625 L 167.875 21.5625 L 167.875 25.730469 L 166.75 25.769531 L 166.855469 26.519531 C 168.542969 26.417969 169.9375 26.292969 171.082031 26.167969 L 171.082031 27.230469 L 171.917969 27.230469 L 171.917969 26.0625 C 172.144531 26.019531 172.394531 25.980469 172.605469 25.9375 L 172.605469 25.25 C 172.394531 25.292969 172.144531 25.332031 171.917969 25.355469 L 171.917969 21.5625 L 177.3125 21.5625 L 177.3125 20.875 Z M 168.644531 25.6875 L 168.644531 24.644531 L 171.082031 24.644531 L 171.082031 25.480469 C 170.355469 25.5625 169.542969 25.625 168.644531 25.6875 Z M 168.644531 24.019531 L 168.644531 23.125 L 171.082031 23.125 L 171.082031 24.019531 Z M 168.644531 22.480469 L 168.644531 21.5625 L 171.082031 21.5625 L 171.082031 22.480469 Z M 168.25 16.625 L 168.25 20.082031 L 175.832031 20.082031 L 175.832031 16.625 Z M 175 19.457031 L 169.0625 19.457031 L 169.0625 18.644531 L 175 18.644531 Z M 169.0625 18.042969 L 169.0625 17.269531 L 175 17.269531 L 175 18.042969 Z M 172.917969 23.082031 C 173.167969 23.957031 173.605469 24.75 174.269531 25.4375 C 173.769531 25.875 173.144531 26.230469 172.417969 26.542969 L 172.855469 27.207031 C 173.644531 26.875 174.3125 26.457031 174.875 25.980469 C 175.417969 26.4375 176.082031 26.832031 176.875 27.207031 L 177.3125 26.5 C 176.5625 26.1875 175.957031 25.832031 175.417969 25.4375 C 176 24.769531 176.394531 23.980469 176.625 23.042969 L 176.625 22.375 L 172.542969 22.375 L 172.542969 23.082031 Z M 174.8125 24.917969 C 174.25 24.375 173.875 23.769531 173.667969 23.082031 L 175.855469 23.082031 C 175.644531 23.75 175.292969 24.375 174.8125 24.917969 Z M 174.8125 24.917969 "/>
<path style=" stroke:none;fill-rule:nonzero;fill:rgb(0%,0%,0%);fill-opacity:1;" d="M 182.5 17.644531 L 182.5 18.480469 L 185.105469 18.480469 L 185.105469 20.269531 L 181.875 20.269531 L 181.875 21.105469 L 189.25 21.105469 L 189.25 20.269531 L 186 20.269531 L 186 18.480469 L 188.644531 18.480469 L 188.644531 17.644531 L 186 17.644531 L 186 16.1875 L 185.105469 16.1875 L 185.105469 17.644531 Z M 182.375 23.0625 L 182.375 23.894531 L 185.105469 23.894531 L 185.105469 25.9375 L 181.667969 25.9375 L 181.667969 26.792969 L 189.457031 26.792969 L 189.457031 25.9375 L 186 25.9375 L 186 23.894531 L 188.75 23.894531 L 188.75 23.0625 L 186 23.0625 L 186 21.542969 L 185.105469 21.542969 L 185.105469 23.0625 Z M 179.957031 20.519531 L 179.957031 27.207031 L 180.855469 27.207031 L 180.855469 19.1875 C 181.332031 18.355469 181.75 17.457031 182.0625 16.519531 L 181.25 16.144531 C 180.667969 18 179.730469 19.644531 178.4375 21.0625 L 178.707031 22 C 179.167969 21.519531 179.582031 21.042969 179.957031 20.519531 Z M 179.957031 20.519531 "/>
</g>
</svg>
