<svg width="20" height="20" viewBox="0 0 20 20" fill="none" xmlns="http://www.w3.org/2000/svg">
<g id="&#229;&#164;&#141;&#229;&#136;&#182;_ic">
<g id="Group 427322163">
<path id="Rectangle 40451" d="M14.0001 5.75L13.9963 3.99791C13.9951 3.44644 13.5478 3.00002 12.9963 3.00004L10.9942 3.00013H4.54543C3.99295 3.00013 3.54515 3.44816 3.54543 4.00064L3.55027 13.5005C3.55055 14.0526 3.99819 14.5 4.55027 14.5H6.00006M14.0001 5.75V11.7499V13.5C14.0001 14.0523 13.5523 14.5 13.0001 14.5H6.00006M14.0001 5.75H15.4772C16.0295 5.75 16.4772 6.19771 16.4772 6.75V16C16.4772 16.5523 16.0295 17 15.4772 17H7.00006C6.44777 17 6.00006 16.5523 6.00006 16V14.5" stroke="#1A2029" stroke-width="1.5"/>
<g id="Group 427322120">
<path id="Line (Stroke)" fill-rule="evenodd" clip-rule="evenodd" d="M6 6.75C6 6.33579 6.33579 6 6.75 6H11.25C11.6642 6 12 6.33579 12 6.75C12 7.16421 11.6642 7.5 11.25 7.5H6.75C6.33579 7.5 6 7.16421 6 6.75Z" fill="#1A2029"/>
<path id="Line (Stroke)_2" fill-rule="evenodd" clip-rule="evenodd" d="M6 10.2432C6 9.82895 6.33579 9.49316 6.75 9.49316H10.05C10.4642 9.49316 10.8 9.82895 10.8 10.2432C10.8 10.6574 10.4642 10.9932 10.05 10.9932H6.75C6.33579 10.9932 6 10.6574 6 10.2432Z" fill="#1A2029"/>
</g>
</g>
</g>
</svg>
