<svg width="20" height="20" viewBox="0 0 20 20" fill="none" xmlns="http://www.w3.org/2000/svg">
<g id="&#229;&#136;&#134;&#228;&#186;&#171;_20" clip-path="url(#clip0_1083_164937)">
<g id="veil" style="mix-blend-mode:darken" opacity="0.01">
<rect width="20" height="20" fill="white"/>
</g>
<path id="Vector 1449" d="M17.6816 9.15884L11.8656 2.92735C11.5559 2.59559 11 2.81408 11 3.26789V6.05334C11 6.30812 10.8083 6.52001 10.5565 6.55882C6.5442 7.17725 2.29266 10.1791 1.9833 16.2612C1.95781 16.7624 2.61553 16.9247 2.89575 16.5084C5.81544 12.1705 8.90073 12.3867 10.5009 12.4798C10.7766 12.4959 11 12.7235 11 12.9997V15.7317C11 16.1855 11.5559 16.4044 11.8655 16.0726L17.6816 9.84116C17.8609 9.64906 17.8609 9.35094 17.6816 9.15884Z" stroke="#1A2029" stroke-width="1.5" stroke-linejoin="round"/>
</g>
<defs>
<clipPath id="clip0_1083_164937">
<rect width="20" height="20" fill="white"/>
</clipPath>
</defs>
</svg>
