<svg version="1.1" id="图层_1" xmlns="http://www.w3.org/2000/svg" xmlns:xlink="http://www.w3.org/1999/xlink" x="0px" y="0px"
	 viewBox="0 0 20 20" style="enable-background:new 0 0 20 20;" xml:space="preserve">
<style type="text/css">
	.st0{fill-rule:evenodd;clip-rule:evenodd;fill:#1A2029;}
</style>
<g>
	<g>
		<path class="st0" d="M3,17.6c-0.4,0-0.8-0.3-0.8-0.8V8.6c0-0.4,0.3-0.7,0.8-0.7c0.4,0,0.8,0.3,0.8,0.7v8.2
			C3.8,17.2,3.4,17.6,3,17.6z M13.5,4.9l-0.3,1.5h2.5c1.6,0,2.9,1.3,2.9,2.9v1.4c0,0.4-0.1,0.7-0.2,1l0,0l-2.1,5
			c-0.4,1-1.4,1.8-2.6,1.8H7.5c-1.6,0-2.9-1.3-2.9-2.9v-7c0-0.8,0.3-1.5,0.8-2l4.2-4.3c0.8-0.8,2-0.8,2.7,0l0.4,0.4
			c0.4,0.5,0.7,1.1,0.7,1.8v0.1L13.5,4.9z M6.5,7.6l4.2-4.3c0.2-0.2,0.4-0.2,0.6,0l0.4,0.4C11.9,3.9,12,4.2,12,4.5l0,0.2l-0.6,2.8
			c0,0.2,0.1,0.4,0.3,0.4h3.9c0.7,0,1.4,0.6,1.4,1.4v1.4c0,0.2,0,0.3-0.1,0.5l-2.1,4.9c-0.2,0.5-0.7,0.9-1.3,0.9H7.5
			c-0.7,0-1.4-0.6-1.4-1.4v-7C6.1,8.2,6.3,7.9,6.5,7.6z"/>
	</g>
</g>
</svg>
